<svg width="20" height="20" viewBox="0 0 20 20" fill="none" xmlns="http://www.w3.org/2000/svg">
<g clip-path="url(#clip0_96_18077)">
<path d="M19.8678 9.67889L15.3225 5.1335C15.1592 4.94284 14.8722 4.92061 14.6816 5.08393C14.4909 5.24721 14.4687 5.53416 14.632 5.72482C14.6472 5.74259 14.6638 5.75919 14.6816 5.77439L18.4497 9.54705H0.454523C0.203512 9.54705 0 9.75057 0 10.0016C0 10.2527 0.203512 10.4561 0.454523 10.4561H18.4497L14.6816 14.2242C14.4909 14.3875 14.4687 14.6745 14.632 14.8651C14.7953 15.0558 15.0822 15.078 15.2729 14.9147C15.2907 14.8995 15.3073 14.8829 15.3225 14.8651L19.8679 10.3197C20.0441 10.1425 20.0441 9.85619 19.8678 9.67889Z" fill="#F73E5D"/>
<path d="M19.8678 9.67889L15.3225 5.1335C15.1592 4.94284 14.8722 4.92061 14.6816 5.08393C14.4909 5.24721 14.4687 5.53416 14.632 5.72482C14.6472 5.74259 14.6638 5.75919 14.6816 5.77439L18.4497 9.54705H0.454523C0.203512 9.54705 0 9.75057 0 10.0016C0 10.2527 0.203512 10.4561 0.454523 10.4561H18.4497L14.6816 14.2242C14.4909 14.3875 14.4687 14.6745 14.632 14.8651C14.7953 15.0558 15.0822 15.078 15.2729 14.9147C15.2907 14.8995 15.3073 14.8829 15.3225 14.8651L19.8679 10.3197C20.0441 10.1425 20.0441 9.85619 19.8678 9.67889Z" fill="#F73E5D"/>
</g>
<defs>
<clipPath id="clip0_96_18077">
<rect width="20" height="20" fill="white"/>
</clipPath>
</defs>
</svg>
