<svg width="54" height="54" viewBox="0 0 54 54" fill="none" xmlns="http://www.w3.org/2000/svg">
<g clip-path="url(#clip0_200_155)">
<path opacity="0.65" d="M54 27C54 41.9117 41.9117 54 27 54C12.0883 54 1.83202e-06 41.9117 1.18021e-06 27C5.28397e-07 12.0883 12.0883 -5.28397e-07 27 -1.18021e-06C41.9117 -1.83202e-06 54 12.0883 54 27Z" fill="url(#paint0_radial_200_155)"/>
<path d="M49.2981 27.0001C49.2981 39.3149 39.3149 49.2981 27.0001 49.2981C14.6853 49.2981 4.70215 39.3149 4.70215 27.0001C4.70215 14.6853 14.6853 4.70215 27.0001 4.70215C39.3149 4.70215 49.2981 14.6853 49.2981 27.0001Z" fill="url(#paint1_radial_200_155)"/>
<path d="M44.5961 27.7346C44.5961 37.4526 36.7182 45.3305 27.0002 45.3305C17.2823 45.3305 9.4043 37.4526 9.4043 27.7346C9.4043 18.0166 17.2823 10.1387 27.0002 10.1387C36.7182 10.1387 44.5961 18.0166 44.5961 27.7346Z" fill="url(#paint2_linear_200_155)"/>
<path d="M44.5961 26.2654C44.5961 35.9833 36.7182 43.8613 27.0002 43.8613C17.2823 43.8613 9.4043 35.9833 9.4043 26.2654C9.4043 16.5474 17.2823 8.66943 27.0002 8.66943C36.7182 8.66943 44.5961 16.5474 44.5961 26.2654Z" fill="url(#paint3_linear_200_155)"/>
<path d="M41.8045 26.2655C41.8045 34.4416 35.1765 41.0696 27.0004 41.0696C18.8243 41.0696 12.1963 34.4416 12.1963 26.2655C12.1963 18.0894 18.8243 11.4614 27.0004 11.4614C35.1765 11.4614 41.8045 18.0894 41.8045 26.2655Z" fill="url(#paint4_linear_200_155)"/>
<path d="M41.8045 26.2655C41.8045 34.4416 35.1765 41.0696 27.0004 41.0696C18.8243 41.0696 12.1963 34.4416 12.1963 26.2655C12.1963 18.0894 18.8243 11.4614 27.0004 11.4614C35.1765 11.4614 41.8045 18.0894 41.8045 26.2655Z" stroke="#F73E5D" stroke-width="4" stroke-miterlimit="10"/>
<g clip-path="url(#clip1_200_155)">
<path d="M19.0072 26.7402L22.6889 23.0584C22.8212 22.904 23.0536 22.886 23.208 23.0182C23.3625 23.1505 23.3805 23.3829 23.2482 23.5374C23.2358 23.5518 23.2224 23.5652 23.208 23.5775L20.1559 26.6334L34.7319 26.6334C34.9353 26.6334 35.1001 26.7982 35.1001 27.0016C35.1001 27.2049 34.9353 27.3697 34.7319 27.3697L20.1559 27.3697L23.208 30.4219C23.3625 30.5541 23.3805 30.7866 23.2482 30.941C23.1159 31.0954 22.8835 31.1134 22.7291 30.9812C22.7147 30.9688 22.7012 30.9554 22.6889 30.941L19.0071 27.2592C18.8644 27.1157 18.8644 26.8838 19.0072 26.7402Z" fill="white"/>
</g>
</g>
<defs>
<radialGradient id="paint0_radial_200_155" cx="0" cy="0" r="1" gradientUnits="userSpaceOnUse" gradientTransform="translate(27.0026 27.0026) rotate(90) scale(33.5497)">
<stop stop-color="#F73E5D"/>
<stop offset="0.995" stop-color="#F73E5D" stop-opacity="0"/>
</radialGradient>
<radialGradient id="paint1_radial_200_155" cx="0" cy="0" r="1" gradientUnits="userSpaceOnUse" gradientTransform="translate(27.0027 27.0027) rotate(90) scale(31.8289)">
<stop stop-color="#F73E5D"/>
<stop offset="0.995" stop-color="#F73E5D" stop-opacity="0"/>
</radialGradient>
<linearGradient id="paint2_linear_200_155" x1="27.0028" y1="33.2738" x2="27.0028" y2="64.6493" gradientUnits="userSpaceOnUse">
<stop stop-color="#F73E5D"/>
<stop offset="0.995" stop-color="#F73E5D" stop-opacity="0"/>
</linearGradient>
<linearGradient id="paint3_linear_200_155" x1="40.188" y1="39.4682" x2="12.8258" y2="12.106" gradientUnits="userSpaceOnUse">
<stop stop-color="#F73E5D"/>
<stop offset="0.995" stop-color="#F73E5D" stop-opacity="0"/>
</linearGradient>
<linearGradient id="paint4_linear_200_155" x1="19.6499" y1="17.7155" x2="37.4958" y2="38.5092" gradientUnits="userSpaceOnUse">
<stop stop-color="#F73E5D"/>
<stop offset="1" stop-color="#F73E5D" stop-opacity="0"/>
</linearGradient>
<clipPath id="clip0_200_155">
<rect width="54" height="54" fill="white" transform="matrix(4.37114e-08 1 1 -4.37114e-08 0 0)"/>
</clipPath>
<clipPath id="clip1_200_155">
<rect width="16.2" height="16.2" fill="white" transform="matrix(-1 4.37114e-08 4.37114e-08 1 35.1001 18.8999)"/>
</clipPath>
</defs>
</svg>
