<svg width="168" height="81" viewBox="0 0 168 81" fill="none" xmlns="http://www.w3.org/2000/svg">
<g clip-path="url(#clip0_322_21)">
<path d="M9.94399 9.82395C-3.29904 22.9067 -3.29904 44.1132 9.94399 57.2196L57.8962 9.82395C44.6531 -3.28246 23.187 -3.28246 9.94399 9.82395Z" fill="#10113D" fill-opacity="0.2"/>
<path d="M9.94399 9.82395C-3.29904 22.9067 -3.29904 44.1132 9.94399 57.2196L57.8962 9.82395C44.6531 -3.28246 23.187 -3.28246 9.94399 9.82395Z" fill="url(#paint0_linear_322_21)"/>
<path d="M57.896 57.1964C71.1391 44.1136 71.1391 22.9072 57.896 9.80078L9.94385 57.1964C23.1869 70.2792 44.653 70.2792 57.896 57.1964Z" fill="#141D26"/>
<path d="M57.896 57.1964C71.1391 44.1136 71.1391 22.9072 57.896 9.80078L9.94385 57.1964C23.1869 70.2792 44.653 70.2792 57.896 57.1964Z" fill="url(#paint1_linear_322_21)"/>
<path d="M49.1473 58.9907H53.4501V43.5937H60.7648V41.3975H41.8325V43.5937H49.1473V58.9907Z" fill="white"/>
<path d="M81.8963 51.0323C82.6373 50.1113 83.0198 48.9541 83.0198 47.6081C83.0198 46.6398 82.8047 45.7425 82.3983 44.9868C81.9919 44.2075 81.3943 43.5699 80.6294 43.0267C79.8644 42.5072 78.9321 42.1057 77.8564 41.8224C76.7808 41.539 75.5377 41.4209 74.1752 41.4209H64.231V58.9906H68.5098V53.8189H74.5576L78.5497 58.9906H83.474L78.9321 53.0868C80.1752 52.5909 81.1792 51.906 81.8963 51.0323ZM68.4859 43.5935H74.1274C75.5138 43.5935 76.5656 43.9241 77.3066 44.5617C78.0477 45.1993 78.4062 46.2148 78.4062 47.5845C78.4062 48.9541 78.0238 49.9696 77.3066 50.6072C76.5656 51.2448 75.4899 51.5754 74.1274 51.5754H68.4859V43.5935Z" fill="white"/>
<path d="M91.8881 54.8107H101.952L103.745 58.9906H108.047L100.207 41.5154L100.159 41.4209H93.7049L85.8164 58.9906H90.1192L91.8881 54.8107ZM96.9559 43.8533L100.876 52.6145H93.0116L96.9319 43.8533H96.9559Z" fill="white"/>
<path d="M130.757 54.008C131.282 52.9217 131.569 51.6228 131.569 50.2059C131.569 48.7654 131.306 47.4902 130.757 46.4039C130.231 45.3176 129.466 44.373 128.486 43.6409C127.53 42.9088 126.358 42.3421 124.996 41.9642C123.657 41.5864 122.151 41.3975 120.502 41.3975H111.394V58.9672H120.526C122.151 58.9672 123.681 58.7782 125.02 58.4004C126.358 58.0225 127.529 57.4558 128.51 56.7237C129.466 56.0153 130.207 55.0943 130.757 54.008ZM120.526 56.7946H115.697V43.6173H120.526C121.434 43.6173 122.271 43.7354 123.059 43.9951C123.824 44.2313 124.518 44.6327 125.091 45.1523C125.665 45.6718 126.143 46.3803 126.478 47.1832C126.812 48.0097 127.004 49.0252 127.004 50.1823C127.004 51.3394 126.836 52.3549 126.478 53.1814C126.143 54.008 125.665 54.6928 125.091 55.2123C124.518 55.7319 123.824 56.1333 123.059 56.3695C122.271 56.6529 121.434 56.7946 120.526 56.7946Z" fill="white"/>
<path d="M152.008 56.7945H139.386V51.1033H149.283V48.9071H139.386V43.5937H152.008V41.3975H135.107V58.9907H152.008V56.7945Z" fill="white"/>
<path d="M41.9761 80.9994H58.8765V78.8032H46.255V73.1355H56.1514V70.9393H46.255V65.6259H58.8765V63.4297H41.9761V80.9994Z" fill="white"/>
<path d="M81.8722 63.4297H76.7806L71.4977 69.2154L66.2387 63.4297H61.1471L68.9399 72.002L60.7407 80.9994H65.8324L71.4977 74.7886L77.1869 80.9994H82.2786L74.0316 72.002L81.8722 63.4297Z" fill="white"/>
<path d="M101.641 65.0355C100.876 64.516 99.9439 64.1145 98.8682 63.8311C97.7925 63.5478 96.5495 63.4297 95.1869 63.4297H85.2427V80.9994H89.5216V75.8276H95.163C96.5256 75.8276 97.7686 75.686 98.8443 75.4262C99.9439 75.1428 100.876 74.7413 101.617 74.2218C102.382 73.7023 102.98 73.0411 103.386 72.2618C103.793 71.4825 104.008 70.6087 104.008 69.6405C104.008 68.6722 103.793 67.7749 103.386 67.0192C103.004 66.2399 102.406 65.5787 101.641 65.0355ZM99.4897 69.6169C99.4897 70.9865 99.1072 72.002 98.3662 72.6396C97.6252 73.2772 96.5495 73.6078 95.163 73.6078H89.5216V65.6023H95.163C96.5495 65.6023 97.6252 65.9329 98.3662 66.5705C99.1072 67.2317 99.4897 68.2708 99.4897 69.6169Z" fill="white"/>
<path d="M107.569 80.9994H124.47V78.8032H111.848V73.1355H121.769V70.9393H111.848V65.6259H124.47V63.4297H107.569V80.9994Z" fill="white"/>
<path d="M146.127 73.0655C146.868 72.1445 147.251 70.9873 147.251 69.6413C147.251 68.673 147.036 67.7757 146.629 67.02C146.223 66.2407 145.625 65.6031 144.86 65.0599C144.095 64.5404 143.163 64.1389 142.087 63.8556C141.012 63.5722 139.769 63.4541 138.406 63.4541H128.462V81.0002H132.741V75.8284H138.789L142.781 81.0002H147.705L143.163 75.0964C144.43 74.6241 145.434 73.9392 146.127 73.0655ZM142.685 69.6177C142.685 70.9873 142.303 72.0028 141.585 72.6404C140.844 73.278 139.769 73.6086 138.406 73.6086H132.765V65.6031H138.406C139.793 65.6031 140.844 65.9337 141.585 66.5713C142.326 67.2325 142.685 68.2716 142.685 69.6177Z" fill="white"/>
<path d="M149.067 63.4297V65.6259H156.382V80.9994H160.685V65.6259H168V63.4297H149.067Z" fill="white"/>
</g>
<defs>
<linearGradient id="paint0_linear_322_21" x1="28.9539" y1="-0.00585938" x2="28.9539" y2="57.2196" gradientUnits="userSpaceOnUse">
<stop stop-color="#F73E5D"/>
<stop offset="1" stop-color="#F73E5D" stop-opacity="0"/>
</linearGradient>
<linearGradient id="paint1_linear_322_21" x1="38.8861" y1="9.80078" x2="38.8861" y2="67.0085" gradientUnits="userSpaceOnUse">
<stop stop-color="#298BE7"/>
<stop offset="1" stop-color="#298BE7" stop-opacity="0"/>
</linearGradient>
<clipPath id="clip0_322_21">
<rect width="168" height="81" fill="white"/>
</clipPath>
</defs>
</svg>
