<svg width="80" height="80" viewBox="0 0 80 80" fill="none" xmlns="http://www.w3.org/2000/svg">
<path opacity="0.65" d="M40 80C62.0914 80 80 62.0914 80 40C80 17.9086 62.0914 0 40 0C17.9086 0 0 17.9086 0 40C0 62.0914 17.9086 80 40 80Z" fill="url(#paint0_radial_322_39)"/>
<path d="M39.9998 73.0338C58.244 73.0338 73.0338 58.244 73.0338 39.9998C73.0338 21.7556 58.244 6.96582 39.9998 6.96582C21.7556 6.96582 6.96582 21.7556 6.96582 39.9998C6.96582 58.244 21.7556 73.0338 39.9998 73.0338Z" fill="url(#paint1_radial_322_39)"/>
<path d="M41.0886 66.0677C55.4855 66.0677 67.1566 54.3966 67.1566 39.9997C67.1566 25.6027 55.4855 13.9316 41.0886 13.9316C26.6916 13.9316 15.0205 25.6027 15.0205 39.9997C15.0205 54.3966 26.6916 66.0677 41.0886 66.0677Z" fill="url(#paint2_linear_322_39)"/>
<path d="M38.9118 66.0677C53.3088 66.0677 64.9798 54.3966 64.9798 39.9997C64.9798 25.6027 53.3088 13.9316 38.9118 13.9316C24.5148 13.9316 12.8438 25.6027 12.8438 39.9997C12.8438 54.3966 24.5148 66.0677 38.9118 66.0677Z" fill="url(#paint3_linear_322_39)"/>
<path d="M38.912 61.9323C51.0247 61.9323 60.8439 52.113 60.8439 40.0003C60.8439 27.8876 51.0247 18.0684 38.912 18.0684C26.7993 18.0684 16.98 27.8876 16.98 40.0003C16.98 52.113 26.7993 61.9323 38.912 61.9323Z" fill="url(#paint4_linear_322_39)"/>
<path d="M38.912 61.9323C51.0247 61.9323 60.8439 52.113 60.8439 40.0003C60.8439 27.8876 51.0247 18.0684 38.912 18.0684C26.7993 18.0684 16.98 27.8876 16.98 40.0003C16.98 52.113 26.7993 61.9323 38.912 61.9323Z" stroke="#F73E5D" stroke-width="4" stroke-miterlimit="10"/>
<g clip-path="url(#clip0_322_39)">
<path d="M39.6153 28.1586L34.1609 33.613C33.9321 33.809 33.9054 34.1533 34.1014 34.3821C34.2973 34.6109 34.6417 34.6376 34.8705 34.4416C34.8918 34.4233 34.9117 34.4034 34.9299 34.3821L39.4571 29.8604V51.4546C39.4571 51.7558 39.7014 52 40.0026 52C40.3039 52 40.5481 51.7558 40.5481 51.4546V29.8604L45.0698 34.3821C45.2657 34.6109 45.61 34.6376 45.8388 34.4416C46.0676 34.2456 46.0943 33.9013 45.8983 33.6725C45.88 33.6512 45.8602 33.6313 45.8388 33.613L40.3844 28.1586C40.1717 27.9471 39.8281 27.9471 39.6153 28.1586Z" fill="white"/>
</g>
<defs>
<radialGradient id="paint0_radial_322_39" cx="0" cy="0" r="1" gradientUnits="userSpaceOnUse" gradientTransform="translate(40.0038 40.0038) scale(49.7032)">
<stop stop-color="#F73E5D"/>
<stop offset="0.995" stop-color="#F73E5D" stop-opacity="0"/>
</radialGradient>
<radialGradient id="paint1_radial_322_39" cx="0" cy="0" r="1" gradientUnits="userSpaceOnUse" gradientTransform="translate(40.0036 40.0036) scale(47.1539)">
<stop stop-color="#F73E5D"/>
<stop offset="0.995" stop-color="#F73E5D" stop-opacity="0"/>
</radialGradient>
<linearGradient id="paint2_linear_322_39" x1="49.2948" y1="40.0035" x2="95.777" y2="40.0035" gradientUnits="userSpaceOnUse">
<stop stop-color="#F73E5D"/>
<stop offset="0.995" stop-color="#F73E5D" stop-opacity="0"/>
</linearGradient>
<linearGradient id="paint3_linear_322_39" x1="58.4716" y1="59.5371" x2="17.935" y2="19.0005" gradientUnits="userSpaceOnUse">
<stop stop-color="#F73E5D"/>
<stop offset="0.995" stop-color="#F73E5D" stop-opacity="0"/>
</linearGradient>
<linearGradient id="paint4_linear_322_39" x1="26.2453" y1="29.1108" x2="57.0507" y2="55.5491" gradientUnits="userSpaceOnUse">
<stop stop-color="#F73E5D"/>
<stop offset="1" stop-color="#F73E5D" stop-opacity="0"/>
</linearGradient>
<clipPath id="clip0_322_39">
<rect width="24" height="24" fill="white" transform="translate(28 52) rotate(-90)"/>
</clipPath>
</defs>
</svg>
