<svg width="54" height="54" viewBox="0 0 54 54" fill="none" xmlns="http://www.w3.org/2000/svg">
<path d="M27 53.4272C41.5953 53.4272 53.4272 41.5953 53.4272 27C53.4272 12.4046 41.5953 0.572754 27 0.572754C12.4046 0.572754 0.572754 12.4046 0.572754 27C0.572754 41.5953 12.4046 53.4272 27 53.4272Z" fill="url(#paint0_radial_342_148)"/>
<path d="M27.871 47.8544C39.3886 47.8544 48.7254 38.5175 48.7254 26.9999C48.7254 15.4824 39.3886 6.14551 27.871 6.14551C16.3534 6.14551 7.0166 15.4824 7.0166 26.9999C7.0166 38.5175 16.3534 47.8544 27.871 47.8544Z" fill="url(#paint1_linear_342_148)"/>
<path d="M26.1293 47.8544C37.6469 47.8544 46.9837 38.5175 46.9837 26.9999C46.9837 15.4824 37.6469 6.14551 26.1293 6.14551C14.6117 6.14551 5.2749 15.4824 5.2749 26.9999C5.2749 38.5175 14.6117 47.8544 26.1293 47.8544Z" fill="url(#paint2_linear_342_148)"/>
<path d="M26.1296 44.5457C35.8197 44.5457 43.6751 36.6903 43.6751 27.0002C43.6751 17.31 35.8197 9.45459 26.1296 9.45459C16.4394 9.45459 8.58398 17.31 8.58398 27.0002C8.58398 36.6903 16.4394 44.5457 26.1296 44.5457Z" fill="url(#paint3_linear_342_148)"/>
<path d="M26.1296 44.5457C35.8197 44.5457 43.6751 36.6903 43.6751 27.0002C43.6751 17.31 35.8197 9.45459 26.1296 9.45459C16.4394 9.45459 8.58398 17.31 8.58398 27.0002C8.58398 36.6903 16.4394 44.5457 26.1296 44.5457Z" stroke="#F73E5D" stroke-width="4" stroke-miterlimit="10"/>
<g clip-path="url(#clip0_342_148)">
<g filter="url(#filter0_d_342_148)">
<path d="M33.5 24.1377C33.5024 24.1197 33.5024 24.1015 33.5 24.0835C33.5 20.6377 30.5333 17.8335 26.8875 17.8335H25.1167C21.4667 17.8335 18.5 20.6377 18.5 24.0835C18.4976 24.1015 18.4976 24.1197 18.5 24.1377C18.1424 24.23 17.8257 24.4384 17.5994 24.7303C17.3732 25.0222 17.2503 25.3809 17.25 25.7502V27.8335C17.25 28.2755 17.4256 28.6995 17.7382 29.012C18.0507 29.3246 18.4746 29.5002 18.9167 29.5002H19.75C19.75 31.0473 20.3646 32.531 21.4585 33.625C22.5525 34.7189 24.0362 35.3335 25.5833 35.3335H26.4167C29.1708 35.3335 31.3458 33.4668 31.8083 31.7252C32.3074 31.5107 32.7455 31.1756 33.0833 30.7502C33.3779 30.3695 33.539 29.9024 33.5417 29.421C33.8874 29.3221 34.1918 29.1141 34.4096 28.828C34.6274 28.5419 34.7468 28.193 34.75 27.8335V25.7502C34.7497 25.3809 34.6268 25.0222 34.4006 24.7303C34.1743 24.4384 33.8576 24.23 33.5 24.1377V24.1377ZM25.1167 18.6668H26.8875C30.075 18.6668 32.6667 21.096 32.6667 24.0835H32.175C31.9782 22.9193 31.3758 21.8623 30.4744 21.0997C29.5729 20.337 28.4307 19.918 27.25 19.9168H24.75C23.5693 19.918 22.4271 20.337 21.5256 21.0997C20.6242 21.8623 20.0218 22.9193 19.825 24.0835H19.3333C19.3333 21.096 21.925 18.6668 25.1167 18.6668ZM31.4167 24.9168H26.0417C25.5402 24.9142 25.055 24.7387 24.6678 24.4199C24.2807 24.1011 24.0154 23.6585 23.9167 23.1668C23.9112 23.1121 23.895 23.059 23.869 23.0106C23.843 22.9621 23.8077 22.9192 23.7652 22.8844C23.7226 22.8496 23.6736 22.8235 23.621 22.8076C23.5683 22.7917 23.513 22.7864 23.4583 22.7918C23.4036 22.7973 23.3505 22.8135 23.3021 22.8395C23.2536 22.8655 23.2107 22.9008 23.1759 22.9433C23.1411 22.9859 23.115 23.0349 23.0991 23.0875C23.0832 23.1402 23.0779 23.1954 23.0833 23.2502C23.0833 23.4712 22.9955 23.6831 22.8393 23.8394C22.683 23.9957 22.471 24.0835 22.25 24.0835H20.6667C20.8588 23.1424 21.3702 22.2965 22.1142 21.6891C22.8583 21.0816 23.7895 20.75 24.75 20.7502H27.25C28.3551 20.7502 29.4149 21.1892 30.1963 21.9706C30.9777 22.752 31.4167 23.8118 31.4167 24.9168ZM18.9167 28.6668C18.6957 28.6668 18.4837 28.579 18.3274 28.4228C18.1711 28.2665 18.0833 28.0545 18.0833 27.8335V25.7502C18.0833 25.5292 18.1711 25.3172 18.3274 25.1609C18.4837 25.0046 18.6957 24.9168 18.9167 24.9168H19.75V28.6668H18.9167ZM28.0042 31.5835C27.9184 31.341 27.76 31.1309 27.5505 30.9818C27.3409 30.8326 27.0905 30.7517 26.8333 30.7502H25.1667C24.8351 30.7502 24.5172 30.8819 24.2828 31.1163C24.0484 31.3507 23.9167 31.6686 23.9167 32.0002C23.9167 32.3317 24.0484 32.6496 24.2828 32.8841C24.5172 33.1185 24.8351 33.2502 25.1667 33.2502H26.8333C27.0912 33.2494 27.3426 33.169 27.5529 33.0198C27.7633 32.8706 27.9224 32.66 28.0083 32.4168C28.9416 32.4145 29.8714 32.304 30.7792 32.0877C30.1292 33.3335 28.4667 34.5002 26.4167 34.5002H25.5833C24.2572 34.5002 22.9855 33.9734 22.0478 33.0357C21.1101 32.098 20.5833 30.8262 20.5833 29.5002V24.9168H22.25C22.4866 24.9165 22.7205 24.8658 22.936 24.7681C23.1516 24.6704 23.3438 24.5279 23.5 24.3502C23.7721 24.7781 24.1475 25.1307 24.5917 25.3753C25.0359 25.62 25.5346 25.7489 26.0417 25.7502H31.4167V29.0835C31.4167 29.194 31.4606 29.3 31.5387 29.3781C31.6168 29.4563 31.7228 29.5002 31.8333 29.5002H32.7C32.6813 29.7758 32.5813 30.0397 32.4125 30.2585C31.9708 30.8418 30.8458 31.5252 28.0042 31.5835ZM27.25 32.0002C27.25 32.1107 27.2061 32.2167 27.128 32.2948C27.0498 32.3729 26.9438 32.4168 26.8333 32.4168H25.1667C25.0562 32.4168 24.9502 32.3729 24.872 32.2948C24.7939 32.2167 24.75 32.1107 24.75 32.0002C24.75 31.8897 24.7939 31.7837 24.872 31.7055C24.9502 31.6274 25.0562 31.5835 25.1667 31.5835H26.8333C26.9438 31.5835 27.0498 31.6274 27.128 31.7055C27.2061 31.7837 27.25 31.8897 27.25 32.0002ZM33.9167 27.8335C33.9167 28.0545 33.8289 28.2665 33.6726 28.4228C33.5163 28.579 33.3043 28.6668 33.0833 28.6668H32.25V24.9168H33.0833C33.3043 24.9168 33.5163 25.0046 33.6726 25.1609C33.8289 25.3172 33.9167 25.5292 33.9167 25.7502V27.8335Z" fill="white"/>
</g>
</g>
<defs>
<filter id="filter0_d_342_148" x="17.25" y="17.8335" width="21.5" height="21.5" filterUnits="userSpaceOnUse" color-interpolation-filters="sRGB">
<feFlood flood-opacity="0" result="BackgroundImageFix"/>
<feColorMatrix in="SourceAlpha" type="matrix" values="0 0 0 0 0 0 0 0 0 0 0 0 0 0 0 0 0 0 127 0" result="hardAlpha"/>
<feOffset dx="2" dy="2"/>
<feGaussianBlur stdDeviation="1"/>
<feComposite in2="hardAlpha" operator="out"/>
<feColorMatrix type="matrix" values="0 0 0 0 1 0 0 0 0 1 0 0 0 0 1 0 0 0 0.25 0"/>
<feBlend mode="normal" in2="BackgroundImageFix" result="effect1_dropShadow_342_148"/>
<feBlend mode="normal" in="SourceGraphic" in2="effect1_dropShadow_342_148" result="shape"/>
</filter>
<radialGradient id="paint0_radial_342_148" cx="0" cy="0" r="1" gradientUnits="userSpaceOnUse" gradientTransform="translate(27.003 27.003) scale(37.7232)">
<stop stop-color="#F73E5D"/>
<stop offset="0.995" stop-color="#F73E5D" stop-opacity="0"/>
</radialGradient>
<linearGradient id="paint1_linear_342_148" x1="34.436" y1="27.003" x2="71.6217" y2="27.003" gradientUnits="userSpaceOnUse">
<stop stop-color="#F73E5D"/>
<stop offset="0.995" stop-color="#F73E5D" stop-opacity="0"/>
</linearGradient>
<linearGradient id="paint2_linear_342_148" x1="41.7772" y1="42.6299" x2="9.34787" y2="10.2006" gradientUnits="userSpaceOnUse">
<stop stop-color="#F73E5D"/>
<stop offset="0.995" stop-color="#F73E5D" stop-opacity="0"/>
</linearGradient>
<linearGradient id="paint3_linear_342_148" x1="15.9962" y1="18.2885" x2="40.6405" y2="39.4392" gradientUnits="userSpaceOnUse">
<stop stop-color="#F73E5D"/>
<stop offset="1" stop-color="#F73E5D" stop-opacity="0"/>
</linearGradient>
<clipPath id="clip0_342_148">
<rect width="20" height="24" fill="white" transform="translate(16 17)"/>
</clipPath>
</defs>
</svg>
