<svg width="60" height="60" viewBox="0 0 60 60" fill="none" xmlns="http://www.w3.org/2000/svg">
<circle cx="30" cy="30" r="30" fill="white" fill-opacity="0.1"/>
<circle cx="30.5452" cy="29.4549" r="21.8182" fill="white" fill-opacity="0.1"/>
<g clip-path="url(#clip0_96_18198)">
<path d="M43.5833 28.9088C43.5833 31.6005 42.7843 34.2181 41.2728 36.4788C41.0675 36.7861 40.73 36.9522 40.3862 36.9522C40.1827 36.9522 39.9769 36.8941 39.7951 36.7724C39.3059 36.4455 39.1746 35.7838 39.5015 35.2946C40.778 33.3856 41.4526 31.1775 41.4526 28.9088C41.4526 27.934 41.3307 26.9658 41.0901 26.0316C40.9434 25.4619 41.2866 24.8809 41.8563 24.7342C42.4264 24.5877 43.0069 24.9307 43.1536 25.5004C43.4387 26.6082 43.5833 27.7548 43.5833 28.9088ZM35.8987 38.7576C34.1092 39.8415 32.0512 40.4145 29.9469 40.4145C23.6027 40.4145 18.4412 35.253 18.4412 28.9088C18.4412 22.5646 23.6027 17.4031 29.9469 17.4031C32.2959 17.4031 34.5545 18.106 36.479 19.4358C36.963 19.7702 37.6265 19.6489 37.9611 19.1649C38.2955 18.6809 38.1744 18.0174 37.6902 17.6828C35.408 16.106 32.7305 15.2725 29.9469 15.2725C26.3046 15.2725 22.8801 16.6909 20.3045 19.2665C17.729 21.842 16.3105 25.2665 16.3105 28.9088C16.3105 32.5512 17.729 35.9757 20.3045 38.5512C22.8801 41.1268 26.3046 42.5452 29.9469 42.5452C32.4405 42.5452 34.8804 41.8656 37.0027 40.5799C37.5061 40.2751 37.6669 39.6201 37.3621 39.1168C37.057 38.6134 36.402 38.4528 35.8987 38.7576ZM30.0497 31.9979C29.881 32.0046 29.7234 31.9446 29.6011 31.8281L24.0216 26.5378C23.5946 26.1329 22.9202 26.1508 22.5155 26.5778C22.1106 27.0047 22.1285 27.6791 22.5555 28.0838L28.134 33.3733C28.6492 33.8631 29.3156 34.129 30.0218 34.129C30.0597 34.129 30.0976 34.1282 30.1354 34.1267C30.8835 34.0965 31.5705 33.7728 32.0699 33.2149C32.0826 33.201 32.0947 33.1866 32.1065 33.1719L43.3482 19.1893C43.7169 18.7307 43.644 18.06 43.1854 17.6915C42.7271 17.3228 42.0562 17.3957 41.6875 17.8542L30.4679 31.8096C30.3577 31.9247 30.2099 31.9915 30.0497 31.9979Z" fill="url(#paint0_linear_96_18198)"/>
</g>
<defs>
<linearGradient id="paint0_linear_96_18198" x1="29.9469" y1="15.2725" x2="29.9469" y2="42.5452" gradientUnits="userSpaceOnUse">
<stop stop-color="#298BE7"/>
<stop offset="1" stop-color="#70EFEE"/>
</linearGradient>
<clipPath id="clip0_96_18198">
<rect width="27.2727" height="27.2727" fill="white" transform="translate(16.3638 15.2725)"/>
</clipPath>
</defs>
</svg>
