<svg width="120" height="59" viewBox="0 0 120 59" fill="none" xmlns="http://www.w3.org/2000/svg">
<g clip-path="url(#clip0_96_20365)">
<path d="M7.10278 7.08633C-2.35652 16.5236 -2.35652 31.8208 7.10278 41.2752L41.3543 7.08633C31.895 -2.36797 16.5621 -2.36797 7.10278 7.08633Z" fill="#10113D" fill-opacity="0.2"/>
<path d="M7.10278 7.08633C-2.35652 16.5236 -2.35652 31.8208 7.10278 41.2752L41.3543 7.08633C31.895 -2.36797 16.5621 -2.36797 7.10278 7.08633Z" fill="url(#paint0_linear_96_20365)"/>
<path d="M41.3541 41.2582C50.8134 31.8209 50.8134 16.5236 41.3541 7.06934L7.10254 41.2582C16.5618 50.6954 31.8948 50.6954 41.3541 41.2582Z" fill="#141D26"/>
<path d="M41.3541 41.2582C50.8134 31.8209 50.8134 16.5236 41.3541 7.06934L7.10254 41.2582C16.5618 50.6954 31.8948 50.6954 41.3541 41.2582Z" fill="url(#paint1_linear_96_20365)"/>
<path d="M35.1052 42.5527H38.1786V31.4461H43.4034V29.8618H29.8804V31.4461H35.1052V42.5527Z" fill="white"/>
<path d="M58.4975 36.8121C59.0268 36.1477 59.3 35.313 59.3 34.342C59.3 33.6436 59.1463 32.9963 58.8561 32.4512C58.5658 31.889 58.1389 31.4291 57.5925 31.0373C57.0462 30.6625 56.3802 30.3729 55.6119 30.1685C54.8435 29.9641 53.9557 29.8789 52.9824 29.8789H45.8794V42.5528H48.9357V38.8222H53.2556L56.1071 42.5528H59.6244L56.3802 38.2941C57.2681 37.9364 57.9853 37.4424 58.4975 36.8121ZM48.9187 31.4461H52.9483C53.9386 31.4461 54.6899 31.6846 55.2192 32.1445C55.7485 32.6045 56.0046 33.337 56.0046 34.325C56.0046 35.313 55.7314 36.0455 55.2192 36.5054C54.6899 36.9654 53.9215 37.2039 52.9483 37.2039H48.9187V31.4461Z" fill="white"/>
<path d="M65.6343 39.5376H72.8227L74.1033 42.5528H77.1767L71.5763 29.947L71.5421 29.8789H66.932L61.2974 42.5528H64.3708L65.6343 39.5376ZM69.2541 31.6335L72.0543 37.9534H66.4368L69.237 31.6335H69.2541Z" fill="white"/>
<path d="M93.3978 38.9584C93.7734 38.1748 93.9783 37.2379 93.9783 36.2158C93.9783 35.1767 93.7905 34.2568 93.3978 33.4732C93.0221 32.6896 92.4758 32.0082 91.7757 31.4801C91.0927 30.952 90.2561 30.5432 89.2828 30.2707C88.3266 29.9981 87.2509 29.8618 86.0728 29.8618H79.5674V42.5357H86.0899C87.2509 42.5357 88.3437 42.3994 89.2999 42.1269C90.2561 41.8543 91.0927 41.4455 91.7928 40.9174C92.4757 40.4064 93.0051 39.742 93.3978 38.9584ZM86.0899 40.9685H82.6408V31.4631H86.0899C86.7387 31.4631 87.3363 31.5483 87.8998 31.7356C88.4462 31.906 88.9413 32.1956 89.3511 32.5703C89.7609 32.9451 90.1024 33.4562 90.3414 34.0353C90.5805 34.6316 90.7171 35.3641 90.7171 36.1988C90.7171 37.0335 90.5975 37.766 90.3414 38.3622C90.1024 38.9584 89.7609 39.4524 89.3511 39.8272C88.9413 40.2019 88.4462 40.4915 87.8998 40.6619C87.3363 40.8663 86.7387 40.9685 86.0899 40.9685Z" fill="white"/>
<path d="M108.577 40.9685H99.5617V36.8631H106.631V35.2789H99.5617V31.4461H108.577V29.8618H96.5054V42.5527H108.577V40.9685Z" fill="white"/>
<path d="M29.9829 58.4293H42.0546V56.845H33.0393V52.7567H40.1081V51.1724H33.0393V47.3396H42.0546V45.7554H29.9829V58.4293Z" fill="white"/>
<path d="M58.4801 45.7554H54.8433L51.0698 49.9289L47.3134 45.7554H43.6765L49.2428 51.939L43.3862 58.4293H47.0231L51.0698 53.9491L55.1335 58.4293H58.7704L52.8797 51.939L58.4801 45.7554Z" fill="white"/>
<path d="M72.6009 46.9137C72.0545 46.539 71.3886 46.2494 70.6202 46.045C69.8519 45.8405 68.964 45.7554 67.9907 45.7554H60.8877V58.4293H63.944V54.6986H67.9736C68.9469 54.6986 69.8348 54.5964 70.6031 54.409C71.3886 54.2046 72.0545 53.915 72.5838 53.5403C73.1302 53.1655 73.557 52.6885 73.8473 52.1264C74.1376 51.5642 74.2912 50.9339 74.2912 50.2355C74.2912 49.5371 74.1376 48.8898 73.8473 48.3447C73.5741 47.7825 73.1472 47.3055 72.6009 46.9137ZM71.0641 50.2185C71.0641 51.2065 70.791 51.939 70.2616 52.3989C69.7323 52.8589 68.964 53.0974 67.9736 53.0974H63.944V47.3226H67.9736C68.964 47.3226 69.7323 47.5611 70.2616 48.021C70.791 48.498 71.0641 49.2475 71.0641 50.2185Z" fill="white"/>
<path d="M76.8354 58.4293H88.9072V56.845H79.8918V52.7567H86.9777V51.1724H79.8918V47.3396H88.9072V45.7554H76.8354V58.4293Z" fill="white"/>
<path d="M104.377 52.7056C104.906 52.0413 105.179 51.2066 105.179 50.2356C105.179 49.5371 105.026 48.8898 104.735 48.3447C104.445 47.7826 104.018 47.3226 103.472 46.9308C102.926 46.5561 102.26 46.2665 101.491 46.062C100.723 45.8576 99.8351 45.7725 98.8618 45.7725H91.7588V58.4293H94.8151V54.6987H99.135L101.986 58.4293H105.504L102.26 54.1706C103.165 53.8299 103.882 53.3359 104.377 52.7056ZM101.918 50.2185C101.918 51.2066 101.645 51.9391 101.133 52.399C100.603 52.8589 99.8351 53.0974 98.8618 53.0974H94.8322V47.3226H98.8618C99.8521 47.3226 100.603 47.5611 101.133 48.021C101.662 48.498 101.918 49.2476 101.918 50.2185Z" fill="white"/>
<path d="M106.477 45.7554V47.3396H111.702V58.4293H114.775V47.3396H120V45.7554H106.477Z" fill="white"/>
</g>
<defs>
<linearGradient id="paint0_linear_96_20365" x1="20.6813" y1="-0.00439453" x2="20.6813" y2="41.2752" gradientUnits="userSpaceOnUse">
<stop stop-color="#F73E5D"/>
<stop offset="1" stop-color="#F73E5D" stop-opacity="0"/>
</linearGradient>
<linearGradient id="paint1_linear_96_20365" x1="27.7756" y1="7.06934" x2="27.7756" y2="48.3361" gradientUnits="userSpaceOnUse">
<stop stop-color="#298BE7"/>
<stop offset="1" stop-color="#298BE7" stop-opacity="0"/>
</linearGradient>
<clipPath id="clip0_96_20365">
<rect width="120" height="58.4293" fill="white"/>
</clipPath>
</defs>
</svg>
